# Blender v2.92.0 OBJ File: ''
# www.blender.org
mtllib roadblock.mtl
o ROOT.004
v -0.482759 0.584549 0.100000
v -0.482759 0.423076 0.100000
v 0.517241 0.584549 0.100000
v 0.517241 0.423076 0.100000
v 0.517241 0.584549 0.100000
v 0.517241 0.423076 0.100000
v 0.517241 0.584549 -0.100000
v 0.517241 0.423076 -0.100000
v 0.517241 0.584549 -0.100000
v 0.517241 0.423076 -0.100000
v -0.482759 0.584549 -0.100000
v -0.482759 0.423076 -0.100000
v -0.482759 0.584549 -0.100000
v -0.482759 0.423076 -0.100000
v -0.482759 0.584549 0.100000
v -0.482759 0.423076 0.100000
v -0.482759 0.584549 -0.100000
v -0.482759 0.584549 0.100000
v 0.517241 0.584549 -0.100000
v 0.517241 0.584549 0.100000
v -0.482759 0.423076 0.100000
v -0.482759 0.423076 -0.100000
v 0.517241 0.423076 0.100000
v 0.517241 0.423076 -0.100000
v -0.448276 0.396828 0.027753
v -0.448276 -0.031208 -0.219374
v -0.321839 0.396828 0.027753
v -0.321839 -0.031208 -0.219374
v -0.321839 0.446253 -0.057854
v -0.321839 0.018217 -0.304981
v -0.448276 0.446253 -0.057854
v -0.448276 0.018217 -0.304981
v -0.448276 0.446253 -0.057854
v -0.448276 0.018217 -0.304981
v -0.448276 0.396828 0.027753
v -0.448276 -0.031208 -0.219374
v -0.321839 0.396828 -0.027753
v -0.448276 -0.031208 0.219374
v -0.448276 0.396828 -0.027753
v -0.321839 -0.031208 0.219374
v -0.321839 0.446253 0.057854
v -0.321839 0.018217 0.304981
v -0.448276 0.446253 0.057854
v -0.448276 0.018217 0.304981
v -0.448276 0.396828 -0.027753
v -0.448276 0.018217 0.304981
v -0.448276 0.446253 0.057854
v -0.448276 -0.031208 0.219374
v 0.448276 0.396828 -0.027753
v 0.321839 -0.031208 0.219374
v 0.321839 0.396828 -0.027753
v 0.448276 -0.031208 0.219374
v 0.448276 0.446253 0.057854
v 0.448276 0.018217 0.304981
v 0.321839 0.446253 0.057854
v 0.321839 0.018217 0.304981
v 0.321839 0.396828 -0.027753
v 0.321839 0.018217 0.304981
v 0.321839 0.446253 0.057854
v 0.321839 -0.031208 0.219374
v 0.475062 0.396828 -0.027753
v 0.348625 -0.031208 0.219374
v 0.348625 0.396828 -0.027753
v 0.475062 -0.031208 0.219374
v 0.475062 0.446253 0.057854
v 0.475062 0.018217 0.304981
v 0.348625 0.446253 0.057854
v 0.348625 0.018217 0.304981
v 0.348625 0.396828 -0.027753
v 0.348625 0.018217 0.304981
v 0.348625 0.446253 0.057854
v 0.348625 -0.031208 0.219374
v 0.348625 0.396828 0.027753
v 0.348625 -0.031208 -0.219374
v 0.475062 0.396828 0.027753
v 0.475062 -0.031208 -0.219374
v 0.475062 0.446253 -0.057854
v 0.475062 0.018217 -0.304981
v 0.348625 0.446253 -0.057854
v 0.348625 0.018217 -0.304981
v 0.348625 0.446253 -0.057854
v 0.348625 0.018217 -0.304981
v 0.348625 0.396828 0.027753
v 0.348625 -0.031208 -0.219374
vt 0.478714 0.698556
vt 0.478714 0.621810
vt 0.953999 0.698556
vt 0.953999 0.621810
vt 0.138127 0.743321
vt 0.138127 0.618685
vt 0.292501 0.743321
vt 0.292501 0.618685
vt 0.478714 0.562400
vt 0.478714 0.485654
vt 0.953999 0.562400
vt 0.953999 0.485654
vt 0.138127 0.927368
vt 0.138127 0.802732
vt 0.292501 0.927368
vt 0.292501 0.802732
vt 0.481846 0.961933
vt 0.481846 0.866876
vt 0.957131 0.961933
vt 0.957131 0.866876
vt 0.481846 0.807466
vt 0.481846 0.712409
vt 0.957131 0.807466
vt 0.957131 0.712409
vt 0.262244 0.381247
vt 0.452904 0.051016
vt 0.262244 0.381247
vt 0.452904 0.051016
vt 0.328291 0.419379
vt 0.518950 0.089148
vt 0.328291 0.419379
vt 0.518950 0.089148
vt 0.240859 0.419379
vt 0.050200 0.089148
vt 0.306906 0.381247
vt 0.116246 0.051016
vt 0.305068 0.381247
vt 0.114408 0.051016
vt 0.305068 0.381247
vt 0.114408 0.051016
vt 0.239021 0.419379
vt 0.048362 0.089148
vt 0.239021 0.419379
vt 0.048362 0.089148
vt 0.264083 0.381247
vt 0.520788 0.089148
vt 0.330129 0.419379
vt 0.454742 0.051016
vt 0.305068 0.381247
vt 0.114408 0.051016
vt 0.305068 0.381247
vt 0.114408 0.051016
vt 0.239021 0.419379
vt 0.048362 0.089148
vt 0.239021 0.419379
vt 0.048362 0.089148
vt 0.264083 0.381247
vt 0.520788 0.089148
vt 0.330129 0.419379
vt 0.454742 0.051016
vt 0.305068 0.381247
vt 0.114408 0.051016
vt 0.305068 0.381247
vt 0.114408 0.051016
vt 0.239021 0.419379
vt 0.048362 0.089148
vt 0.239021 0.419379
vt 0.048362 0.089148
vt 0.264083 0.381247
vt 0.520788 0.089148
vt 0.330129 0.419379
vt 0.454742 0.051016
vt 0.262244 0.381247
vt 0.452904 0.051016
vt 0.262244 0.381247
vt 0.452904 0.051016
vt 0.328291 0.419379
vt 0.518950 0.089148
vt 0.328291 0.419379
vt 0.518950 0.089148
vt 0.240859 0.419379
vt 0.050200 0.089148
vt 0.306906 0.381247
vt 0.116246 0.051016
vn 0.0000 -0.0000 1.0000
vn 1.0000 0.0000 0.0000
vn 0.0000 0.0000 -1.0000
vn -1.0000 0.0000 0.0000
vn 0.0000 1.0000 0.0000
vn 0.0000 -1.0000 -0.0000
vn 0.0000 -0.5000 0.8660
vn 0.0000 0.5000 -0.8660
vn 0.0000 0.8660 0.5000
vn 0.0000 -0.8660 -0.5000
vn 0.0000 -0.5000 -0.8660
vn 0.0000 0.5000 0.8660
vn 0.0000 0.8660 -0.5000
vn 0.0000 -0.8660 0.5000
usemtl None.004
s 1
f 1/1/1 2/2/1 3/3/1
f 2/2/1 4/4/1 3/3/1
f 5/5/2 6/6/2 7/7/2
f 6/6/2 8/8/2 7/7/2
f 9/9/3 10/10/3 11/11/3
f 10/10/3 12/12/3 11/11/3
f 13/13/4 14/14/4 15/15/4
f 14/14/4 16/16/4 15/15/4
f 17/17/5 18/18/5 19/19/5
f 18/18/5 20/20/5 19/19/5
f 21/21/6 22/22/6 23/23/6
f 22/22/6 24/24/6 23/23/6
f 25/25/7 26/26/7 27/27/7
f 26/26/7 28/28/7 27/27/7
f 27/27/2 28/28/2 29/29/2
f 28/28/2 30/30/2 29/29/2
f 29/29/8 30/30/8 31/31/8
f 30/30/8 32/32/8 31/31/8
f 33/33/4 34/34/4 35/35/4
f 34/34/4 36/36/4 35/35/4
f 31/31/9 25/25/9 29/29/9
f 25/25/9 27/27/9 29/29/9
f 26/26/10 32/32/10 28/28/10
f 32/32/10 30/30/10 28/28/10
f 37/37/11 38/38/11 39/39/11
f 37/37/11 40/40/11 38/38/11
f 41/41/2 40/40/2 37/37/2
f 41/41/2 42/42/2 40/40/2
f 43/43/12 42/42/12 41/41/12
f 43/43/12 44/44/12 42/42/12
f 45/45/4 46/46/4 47/47/4
f 45/45/4 48/48/4 46/46/4
f 41/41/13 39/39/13 43/43/13
f 41/41/13 37/37/13 39/39/13
f 40/40/14 44/44/14 38/38/14
f 40/40/14 42/42/14 44/44/14
f 49/49/11 50/50/11 51/51/11
f 49/49/11 52/52/11 50/50/11
f 53/53/2 52/52/2 49/49/2
f 53/53/2 54/54/2 52/52/2
f 55/55/12 54/54/12 53/53/12
f 55/55/12 56/56/12 54/54/12
f 57/57/4 58/58/4 59/59/4
f 57/57/4 60/60/4 58/58/4
f 53/53/13 51/51/13 55/55/13
f 53/53/13 49/49/13 51/51/13
f 52/52/14 56/56/14 50/50/14
f 52/52/14 54/54/14 56/56/14
f 61/61/11 62/62/11 63/63/11
f 61/61/11 64/64/11 62/62/11
f 65/65/2 64/64/2 61/61/2
f 65/65/2 66/66/2 64/64/2
f 67/67/12 66/66/12 65/65/12
f 67/67/12 68/68/12 66/66/12
f 69/69/4 70/70/4 71/71/4
f 69/69/4 72/72/4 70/70/4
f 65/65/13 63/63/13 67/67/13
f 65/65/13 61/61/13 63/63/13
f 64/64/14 68/68/14 62/62/14
f 64/64/14 66/66/14 68/68/14
f 73/73/7 74/74/7 75/75/7
f 74/74/7 76/76/7 75/75/7
f 75/75/2 76/76/2 77/77/2
f 76/76/2 78/78/2 77/77/2
f 77/77/8 78/78/8 79/79/8
f 78/78/8 80/80/8 79/79/8
f 81/81/4 82/82/4 83/83/4
f 82/82/4 84/84/4 83/83/4
f 79/79/9 73/73/9 77/77/9
f 73/73/9 75/75/9 77/77/9
f 74/74/10 80/80/10 76/76/10
f 80/80/10 78/78/10 76/76/10
